<svg width="423" height="474" viewBox="0 0 423 474" fill="none" xmlns="http://www.w3.org/2000/svg">
<path d="M412.917 -94.7786C340.154 -125.768 259.678 -126.565 186.314 -97.0264C112.951 -67.4877 55.4798 -11.1479 24.4909 61.6153C-6.49812 134.378 -7.29576 214.855 22.243 288.218C51.7818 361.582 108.122 419.051 180.885 450.042C253.647 481.032 334.124 481.829 407.488 452.29C480.852 422.751 538.322 366.411 569.311 293.648C600.3 220.885 601.098 140.409 571.559 67.0449C542.02 -6.31885 485.68 -63.7881 412.917 -94.7786ZM289.989 160.466C332.584 143.315 381.19 164.016 398.34 206.611C412.542 241.884 400.771 281.262 372.12 303.501C370.062 305.099 369.278 307.844 370.251 310.261L376.077 324.73C379.799 333.974 375.898 344.788 366.839 348.94C357.167 353.373 345.868 348.794 341.94 339.039L335.918 324.081C334.947 321.671 332.489 320.229 329.905 320.503C293.995 324.314 258.373 304.278 244.039 269.295C240.213 259.957 244.348 248.984 253.598 244.948C263.196 240.76 274.292 245.344 278.177 254.992C288.113 279.671 317.057 291.12 341.395 279.286C361.941 269.297 372.17 245.277 365.134 223.542C356.799 197.794 328.49 184.862 303.813 194.798C261.218 211.948 212.613 191.247 195.463 148.653C181.26 113.38 193.031 74.0013 221.682 51.7628C223.741 50.1647 224.524 47.4192 223.551 45.002L217.725 30.5331C214.003 21.2891 217.905 10.4757 226.963 6.32357C236.635 1.89063 247.934 6.46907 251.862 16.2248L257.884 31.1819C258.855 33.5926 261.313 35.0342 263.897 34.7605C299.807 30.9497 335.429 50.9856 349.764 85.9685C353.59 95.3065 349.454 106.279 340.205 110.315C330.606 114.504 319.51 109.919 315.626 100.271C305.689 75.5925 276.745 64.143 252.407 75.9772C231.862 85.9663 221.633 109.986 228.668 131.721C237.003 157.469 265.312 170.401 289.989 160.466Z" fill="#3E9FE3"/>
</svg>
