<svg width="32" height="32" viewBox="0 0 32 32" fill="none" xmlns="http://www.w3.org/2000/svg">
<path d="M20.8 16.0001C20.8 17.2732 20.2943 18.4941 19.3941 19.3943C18.494 20.2944 17.2731 20.8001 16 20.8001C14.727 20.8001 13.5061 20.2944 12.6059 19.3943C11.7057 18.4941 11.2 17.2732 11.2 16.0001C11.2 15.7265 11.2288 15.4593 11.2784 15.2001H9.60001V21.5953C9.60001 22.0401 9.96001 22.4001 10.4048 22.4001H21.5968C21.81 22.3997 22.0143 22.3147 22.1649 22.1639C22.3154 22.013 22.4 21.8085 22.4 21.5953V15.2001H20.7216C20.7712 15.4593 20.8 15.7265 20.8 16.0001V16.0001ZM16 19.2001C16.4204 19.2 16.8365 19.1171 17.2248 18.9562C17.6131 18.7952 17.9659 18.5594 18.2631 18.2621C18.5602 17.9648 18.7959 17.6119 18.9567 17.2235C19.1174 16.8351 19.2001 16.4189 19.2 15.9985C19.1999 15.5782 19.117 15.162 18.9561 14.7737C18.7951 14.3854 18.5593 14.0326 18.262 13.7355C17.9647 13.4383 17.6117 13.2026 17.2234 13.0419C16.835 12.8811 16.4187 12.7984 15.9984 12.7985C15.1495 12.7987 14.3355 13.1362 13.7353 13.7366C13.1352 14.337 12.7982 15.1512 12.7984 16.0001C12.7986 16.849 13.1361 17.6631 13.7365 18.2632C14.3369 18.8633 15.1511 19.2003 16 19.2001V19.2001ZM19.84 12.6401H21.7584C21.8859 12.6401 22.0081 12.5896 22.0984 12.4996C22.1887 12.4097 22.2396 12.2876 22.24 12.1601V10.2417C22.24 10.114 22.1893 9.99151 22.099 9.90119C22.0086 9.81088 21.8861 9.76014 21.7584 9.76014H19.84C19.7123 9.76014 19.5898 9.81088 19.4995 9.90119C19.4092 9.99151 19.3584 10.114 19.3584 10.2417V12.1601C19.36 12.4241 19.576 12.6401 19.84 12.6401V12.6401ZM16 0.640137C11.9263 0.640137 8.01941 2.25842 5.13885 5.13898C2.2583 8.01954 0.640015 11.9264 0.640015 16.0001C0.640015 20.0739 2.2583 23.9807 5.13885 26.8613C8.01941 29.7419 11.9263 31.3601 16 31.3601C18.0171 31.3601 20.0145 30.9628 21.878 30.1909C23.7416 29.419 25.4349 28.2876 26.8612 26.8613C28.2875 25.435 29.4189 23.7417 30.1908 21.8782C30.9627 20.0146 31.36 18.0172 31.36 16.0001C31.36 13.983 30.9627 11.9857 30.1908 10.1221C29.4189 8.25856 28.2875 6.56528 26.8612 5.13898C25.4349 3.71267 23.7416 2.58126 21.878 1.80935C20.0145 1.03743 18.0171 0.640137 16 0.640137V0.640137ZM24 22.2225C24 23.2001 23.2 24.0001 22.2224 24.0001H9.77761C8.80001 24.0001 8.00001 23.2001 8.00001 22.2225V9.77774C8.00001 8.80014 8.80001 8.00014 9.77761 8.00014H22.2224C23.2 8.00014 24 8.80014 24 9.77774V22.2225V22.2225Z" fill="white"/>
</svg>
