<svg width="191" height="512" viewBox="0 0 191 512" fill="none" xmlns="http://www.w3.org/2000/svg">
<g opacity="0.1">
<path fill-rule="evenodd" clip-rule="evenodd" d="M391.978 74.8555H213.016L157.702 244.9L302.5 349.998L447.298 244.9L391.978 74.8555ZM152 246.755L209.494 70H395.5L453 246.755L302.5 356L152 246.755Z" fill="white"/>
<path fill-rule="evenodd" clip-rule="evenodd" d="M397.729 66.5902H207.282L148.415 247.503L302.5 359.316L456.597 247.503L397.729 66.5902ZM143 249.266L203.938 62H401.068L462 249.266L302.5 365L143 249.266Z" fill="white"/>
<path fill-rule="evenodd" clip-rule="evenodd" d="M403.465 58.3478H201.535L139.121 250.107L302.497 368.627L465.879 250.107L403.465 58.3478ZM134 251.766L198.369 54H406.631L471 251.766L302.497 374L134 251.766Z" fill="white"/>
<path fill-rule="evenodd" clip-rule="evenodd" d="M409.215 50.0942H195.791L129.822 252.718L302.503 377.944L475.183 252.718L409.215 50.0942ZM126.206 255.148L125 254.273L192.809 46H412.203L480 254.273L302.503 383L126.206 255.148Z" fill="white"/>
<path fill-rule="evenodd" clip-rule="evenodd" d="M414.949 41.8462H190.045L120.523 255.31L302.497 387.25L484.471 255.31L414.949 41.8462ZM116 256.784L187.241 38H417.747L489 256.784L302.497 392L116 256.784Z" fill="white"/>
<path fill-rule="evenodd" clip-rule="evenodd" d="M420.7 34.5869H184.3L111.23 258.921L302.5 397.561L493.77 258.921L420.7 34.5869ZM107 260.286L181.68 31H423.32L498 260.286L302.5 402L107 260.286Z" fill="white"/>
<path fill-rule="evenodd" clip-rule="evenodd" d="M426.639 26.3334H179.361L102.932 261.523L302.997 406.872L503.068 261.523L426.639 26.3334ZM99 262.795L176.937 23H429.063L507 262.795L302.997 411L99 262.795Z" fill="white"/>
<path fill-rule="evenodd" clip-rule="evenodd" d="M432.382 18.0913H173.612L93.6278 264.121L302.997 416.183L512.372 264.121L432.382 18.0913ZM90.9041 265.963L90 265.301L171.378 15H434.628L516 265.301L302.997 420L90.9041 265.963Z" fill="white"/>
<path fill-rule="evenodd" clip-rule="evenodd" d="M438.124 9.83221H167.876L84.3463 266.723L303 425.494L521.66 266.723L438.124 9.83221ZM81 267.806L165.814 7H440.191L525 267.806L303 429L81 267.806Z" fill="white"/>
<path fill-rule="evenodd" clip-rule="evenodd" d="M530.958 269.331L443.873 1.58455H162.133L75.0417 269.331L303 434.811L530.958 269.331ZM72.7604 270.873L72 270.321L159.955 -0.107782L160.249 -1H445.751L534 270.321L303.76 437.453L303 438L72.7604 270.873Z" fill="white"/>
<path fill-rule="evenodd" clip-rule="evenodd" d="M449.618 -6.66883H156.382L65.7484 271.926L303.003 444.116L540.252 271.926L449.618 -6.66883ZM63 272.824L154.688 -9H451.312L543 272.824L303.003 447L63 272.824Z" fill="white"/>
<path fill-rule="evenodd" clip-rule="evenodd" d="M455.357 -14.9222H150.637L56.4434 274.539L303 453.433L549.551 274.539L455.357 -14.9222ZM54.6109 275.777L54 275.339L148.885 -16.2805L149.121 -17H456.879L551.764 274.62L552 275.339L303 456L54.6109 275.777Z" fill="white"/>
<path fill-rule="evenodd" clip-rule="evenodd" d="M461.108 -22.1755H144.892L47.1499 278.135L302.997 463.738L558.85 278.135L461.108 -22.1755ZM45.536 279.223L45 278.831L143.353 -23.3669L143.566 -24H462.434L560.798 278.198L561 278.831L302.997 466L45.536 279.223Z" fill="white"/>
<path fill-rule="evenodd" clip-rule="evenodd" d="M568.132 280.741L466.85 -30.4116H139.156L37.8677 280.741L303 473.049L568.132 280.741ZM36.4727 281.679L36 281.339L137.83 -31.4475L138.009 -32H467.997L569.821 280.792L570 281.339L303.467 474.655L303 475L36.4727 281.679Z" fill="white"/>
<path fill-rule="evenodd" clip-rule="evenodd" d="M472.595 -38.6706H133.405L28.5624 283.343L302.997 482.366L577.432 283.343L472.595 -38.6706ZM27.3863 284.138L27 283.85L132.292 -39.5338L132.436 -40H473.558L578.856 283.395L579 283.85L302.997 484L27.3863 284.138Z" fill="white"/>
<path fill-rule="evenodd" clip-rule="evenodd" d="M586.732 285.947L478.341 -46.9238H127.665L19.2685 285.947L303 491.665L586.732 285.947ZM18.3229 286.586L18 286.35L126.76 -47.6317L126.881 -48H479.125L587.879 285.982L588 286.35L303.323 492.764L303 493L18.3229 286.586Z" fill="white"/>
<path fill-rule="evenodd" clip-rule="evenodd" d="M596.02 289.161L484.081 -55.1814H121.919L9.97458 289.161L302.994 501.974L596.02 289.161ZM9.24797 289.651L9 289.479L121.319 -56H484.681L597 289.479L303.236 502.821L302.994 503L9.24797 289.651Z" fill="white"/>
<path fill-rule="evenodd" clip-rule="evenodd" d="M115.753 -64L115.69 -63.7982L0 291.981L0.173024 292.108L303 512L303.167 511.873L606 291.981L605.942 291.785L490.253 -64H115.753ZM0.674794 291.762L116.18 -63.4293H489.826L605.325 291.762L303 511.279L0.674794 291.762Z" fill="white"/>
</g>
</svg>
